<?xml version="1.0" encoding="utf-8"?>
<!-- Generator: Adobe Illustrator 23.0.4, SVG Export Plug-In . SVG Version: 6.00 Build 0)  -->
<svg version="1.1" xmlns="http://www.w3.org/2000/svg" xmlns:xlink="http://www.w3.org/1999/xlink" x="0px" y="0px"
	 viewBox="0 0 261 82.2" style="enable-background:new 0 0 261 82.2;" xml:space="preserve">
<style type="text/css">
	.st0{fill:#FFFFFF;}
	.st1{fill:#A2A4AA;}
	.st2{fill:#E9E7E5;}
	.st3{fill:#FF4D43;}
	.st4{fill:#454258;}
</style>
<g id="BACKGROUND">
</g>
<g id="OBJECTS">
	<g>
		<path class="st0" d="M24.9,14.6h10v43.5h22.4v9.5H24.9V14.6z"/>
		<path class="st0" d="M88.4,68.8c-3.9,0-7.6-0.7-11-2.1c-3.4-1.4-6.3-3.4-8.8-5.9c-2.5-2.5-4.4-5.4-5.8-8.8
			c-1.4-3.4-2.1-7-2.1-10.8c0-3.8,0.7-7.5,2.1-10.8c1.4-3.4,3.3-6.3,5.8-8.8c2.5-2.5,5.4-4.5,8.8-5.9c3.4-1.4,7-2.1,11-2.1
			c3.9,0,7.6,0.7,11,2.1c3.4,1.4,6.3,3.4,8.8,5.9c2.5,2.5,4.4,5.4,5.8,8.8c1.4,3.4,2.1,7,2.1,10.8c0,3.8-0.7,7.5-2.1,10.8
			c-1.4,3.4-3.3,6.3-5.8,8.8c-2.5,2.5-5.4,4.5-8.8,5.9C96,68,92.3,68.8,88.4,68.8z M88.4,59.3c2.5,0,4.8-0.4,6.9-1.3
			c2.1-0.9,4-2.1,5.6-3.7c1.6-1.6,2.9-3.5,3.8-5.7c0.9-2.2,1.4-4.7,1.4-7.4c0-2.7-0.5-5.2-1.4-7.4c-0.9-2.2-2.2-4.2-3.8-5.7
			c-1.6-1.6-3.5-2.8-5.6-3.7c-2.1-0.9-4.5-1.3-6.9-1.3c-2.5,0-4.8,0.4-6.9,1.3c-2.1,0.9-4,2.1-5.6,3.7c-1.6,1.6-2.9,3.5-3.8,5.7
			c-0.9,2.2-1.4,4.7-1.4,7.4c0,2.7,0.5,5.2,1.4,7.4c0.9,2.2,2.2,4.2,3.8,5.7c1.6,1.6,3.5,2.8,5.6,3.7C83.6,58.8,85.9,59.3,88.4,59.3
			z"/>
		<path class="st0" d="M148.6,38.5h26c0.1,0.6,0.3,1.3,0.4,2.1c0.1,0.8,0.1,1.7,0.1,2.5c0,3.4-0.5,6.6-1.6,9.6c-1,3-2.7,5.7-4.9,8.1
			c-2.4,2.5-5.2,4.5-8.5,5.8c-3.3,1.4-7.1,2.1-11.3,2.1c-3.8,0-7.5-0.7-10.9-2.1c-3.4-1.4-6.4-3.3-8.9-5.8c-2.5-2.5-4.5-5.4-6-8.8
			c-1.5-3.4-2.2-7.1-2.2-11.1c0-4,0.7-7.7,2.2-11.1c1.5-3.4,3.5-6.3,6-8.8c2.5-2.5,5.5-4.4,8.9-5.8c3.4-1.4,7-2.1,10.9-2.1
			c4.3,0,8.1,0.7,11.5,2.2c3.4,1.5,6.3,3.5,8.7,6.1l-6.9,6.7c-1.7-1.8-3.7-3.2-5.8-4.2s-4.7-1.4-7.6-1.4c-2.4,0-4.7,0.4-6.9,1.3
			c-2.2,0.9-4.1,2.1-5.7,3.7c-1.6,1.6-2.9,3.5-3.9,5.7c-1,2.2-1.4,4.7-1.4,7.5c0,2.8,0.5,5.3,1.4,7.5c1,2.2,2.3,4.2,3.9,5.7
			c1.7,1.6,3.6,2.8,5.7,3.7c2.2,0.9,4.5,1.3,7,1.3c2.8,0,5.2-0.4,7.1-1.2c1.9-0.8,3.6-1.9,5-3.1c1-0.9,1.8-2,2.6-3.4
			c0.7-1.4,1.3-2.9,1.7-4.6h-16.6V38.5z"/>
		<path class="st0" d="M208.4,68.8c-3.9,0-7.6-0.7-11-2.1c-3.4-1.4-6.3-3.4-8.8-5.9c-2.5-2.5-4.4-5.4-5.8-8.8
			c-1.4-3.4-2.1-7-2.1-10.8c0-3.8,0.7-7.5,2.1-10.8c1.4-3.4,3.3-6.3,5.8-8.8c2.5-2.5,5.4-4.5,8.8-5.9c3.4-1.4,7-2.1,11-2.1
			c3.9,0,7.6,0.7,11,2.1c3.4,1.4,6.3,3.4,8.8,5.9c2.5,2.5,4.4,5.4,5.8,8.8c1.4,3.4,2.1,7,2.1,10.8c0,3.8-0.7,7.5-2.1,10.8
			c-1.4,3.4-3.3,6.3-5.8,8.8c-2.5,2.5-5.4,4.5-8.8,5.9C216,68,212.4,68.8,208.4,68.8z M208.4,59.3c2.5,0,4.8-0.4,6.9-1.3
			c2.1-0.9,4-2.1,5.6-3.7c1.6-1.6,2.9-3.5,3.8-5.7c0.9-2.2,1.4-4.7,1.4-7.4c0-2.7-0.5-5.2-1.4-7.4c-0.9-2.2-2.2-4.2-3.8-5.7
			c-1.6-1.6-3.5-2.8-5.6-3.7c-2.1-0.9-4.5-1.3-6.9-1.3c-2.5,0-4.8,0.4-6.9,1.3c-2.1,0.9-4,2.1-5.6,3.7c-1.6,1.6-2.9,3.5-3.8,5.7
			c-0.9,2.2-1.4,4.7-1.4,7.4c0,2.7,0.5,5.2,1.4,7.4c0.9,2.2,2.2,4.2,3.8,5.7c1.6,1.6,3.5,2.8,5.6,3.7
			C203.6,58.8,206,59.3,208.4,59.3z"/>
	</g>
</g>
<g id="DESIGNED_BY_FREEPIK">
</g>
</svg>
